<svg xmlns="http://www.w3.org/2000/svg" width="590" height="494" viewBox="0 0 590 494">
    <g fill="#FFF" fill-rule="evenodd" stroke="#393939" stroke-width="9" transform="translate(5 5)">
        <path d="M107.273 404.996c52.096 48.93 125.521 78.79 199.261 78.79 137.035 0 272.981-103.119 272.981-240.116S443.57 0 306.535 0C169.5 0 33.553 106.673 33.553 243.67c0 41.137 12.257 79.22 33.121 112.372-12.108 4.985-20.632 16.898-20.632 30.801 0 18.389 14.911 33.296 33.305 33.296 11.696 0 21.983-6.027 27.925-15.143z"/>
        <ellipse cx="37.948" cy="430.888" rx="17.176" ry="17.172"/>
        <ellipse cx="11.584" cy="460.439" rx="11.584" ry="11.581"/>
    </g>
</svg>
