<svg xmlns="http://www.w3.org/2000/svg" xmlns:xlink="http://www.w3.org/1999/xlink" width="659" height="99" viewBox="0 0 659 99">
    <defs>
        <path id="b" d="M72.584 113.853c4.846-.398 9.078-1.062 12.695-1.992 3.618-.929 6.655-2.057 9.11-3.385 2.457-1.327 4.382-2.788 5.776-4.38 1.393-1.594 2.29-3.253 2.688-4.98H77.065V88.962h26.783v-8.563h13.143v8.563h27.083v10.156h-25.987c.464 1.726 1.394 3.385 2.787 4.978 1.394 1.593 3.32 3.054 5.775 4.381 2.456 1.328 5.477 2.456 9.061 3.385 3.584.93 7.833 1.594 12.745 1.992l-4.182 9.957c-8.43-.73-15.45-2.324-21.059-4.78-5.609-2.456-9.84-5.609-12.695-9.459-2.854 3.85-7.085 7.003-12.694 9.46-5.61 2.455-12.629 4.048-21.059 4.779l-4.182-9.957zm19.217 45.9h51.078v10.455H78.658v-25.589h13.143v15.134zm60.338-32.26v10.355h-33.853v14.637h-13.143v-14.637H69v-10.354h83.139zm58.346 2.888c-5.178-1.66-9.525-4.032-13.043-7.12a34.824 34.824 0 0 1-8.364-10.902c-2.124 4.448-5.028 8.38-8.712 11.799-3.684 3.418-8.214 5.99-13.591 7.716l-6.472-10.355c3.85-1.194 7.152-2.804 9.907-4.829 2.755-2.024 5.028-4.314 6.82-6.87 1.793-2.555 3.103-5.26 3.933-8.114a30.885 30.885 0 0 0 1.245-8.663v-8.762h13.342v8.762c0 2.855.415 5.659 1.244 8.414a25.184 25.184 0 0 0 3.834 7.666c1.726 2.357 3.933 4.48 6.62 6.373 2.69 1.891 5.892 3.402 9.61 4.53l-6.373 10.355zm-36.143 8.364h62.528V171.9h-13.242V149.3h-49.286v-10.554zM236.87 80.1v54.662h-13.242V80.1h13.242zm64.42 22.7c0 3.718.15 7.435.448 11.152a60.714 60.714 0 0 0 1.842 10.803 38.414 38.414 0 0 0 4.082 9.758c1.793 3.02 4.149 5.659 7.07 7.916l-7.966 9.458a28.477 28.477 0 0 1-7.318-8.463c-1.892-3.319-3.402-7.036-4.53-11.151-1.129 4.248-2.689 8.131-4.68 11.65a29.622 29.622 0 0 1-7.766 8.96 29.835 29.835 0 0 1-7.766-8.911c-1.992-3.485-3.552-7.285-4.68-11.4-1.128 3.916-2.589 7.467-4.381 10.653-1.792 3.186-4.082 5.908-6.87 8.165l-8.463-8.961c2.92-2.257 5.26-4.912 7.02-7.966a40.606 40.606 0 0 0 4.032-9.757c.929-3.452 1.543-7.053 1.842-10.803.298-3.75.448-7.451.448-11.102V87.368H276v15.433c0 2.655.083 5.376.249 8.164.166 2.788.465 5.543.896 8.264a52.81 52.81 0 0 0 1.942 8.065 36.217 36.217 0 0 0 3.385 7.468 34.729 34.729 0 0 0 3.335-7.418 55.15 55.15 0 0 0 1.892-8.015c.432-2.722.73-5.476.896-8.264.166-2.788.25-5.543.25-8.264V87.368h12.445v15.433zm29.173-22.7v91.7H317.32V80.1h13.143zm42.914 6.073c3.584 0 6.92.564 10.006 1.693 3.087 1.128 5.758 2.688 8.015 4.68 2.257 1.99 4.033 4.38 5.327 7.168 1.294 2.788 1.942 5.808 1.942 9.06 0 3.32-.648 6.357-1.942 9.111a21.69 21.69 0 0 1-5.327 7.12c-2.257 1.99-4.928 3.55-8.015 4.679-3.086 1.128-6.422 1.693-10.006 1.693-3.585 0-6.92-.565-10.007-1.693-3.086-1.128-5.742-2.688-7.965-4.68-2.224-1.991-3.983-4.364-5.277-7.119-1.295-2.754-1.942-5.791-1.942-9.11 0-3.253.647-6.273 1.942-9.06 1.294-2.789 3.053-5.178 5.277-7.17 2.223-1.99 4.879-3.55 7.965-4.68 3.087-1.128 6.422-1.692 10.007-1.692zm0 11.251c-3.585 0-6.555.996-8.912 2.987-2.356 1.992-3.534 4.78-3.534 8.364 0 3.584 1.178 6.372 3.534 8.364 2.357 1.99 5.327 2.987 8.912 2.987 3.584 0 6.554-.996 8.91-2.987 2.357-1.992 3.536-4.78 3.536-8.364 0-3.585-1.179-6.372-3.535-8.364-2.357-1.991-5.327-2.987-8.911-2.987zM420.372 80v92H407.23V80h13.143zm-76.069 62.727c4.05 0 8.43-.016 13.143-.05a452.1 452.1 0 0 0 14.636-.348c5.045-.2 10.123-.498 15.234-.896 5.111-.398 10.09-.963 14.935-1.693l.797 9.46a169.751 169.751 0 0 1-14.985 2.339c-5.078.564-10.073.979-14.985 1.245a360.92 360.92 0 0 1-14.238.497c-4.58.067-8.862.1-12.844.1l-1.693-10.654zM487.481 93.84c-3.253 0-5.908.78-7.966 2.34-2.058 1.56-3.086 3.733-3.086 6.521 0 2.855 1.028 5.045 3.086 6.572 2.058 1.526 4.713 2.29 7.966 2.29 3.252 0 5.874-.764 7.865-2.29 1.992-1.527 2.987-3.717 2.987-6.572 0-2.788-.995-4.961-2.987-6.521-1.991-1.56-4.613-2.34-7.865-2.34zm0 27.68c-3.386 0-6.506-.465-9.36-1.394-2.854-.93-5.31-2.208-7.368-3.834a17.37 17.37 0 0 1-4.829-5.924c-1.161-2.323-1.742-4.879-1.742-7.667 0-2.788.58-5.327 1.742-7.617s2.772-4.264 4.83-5.924c2.057-1.66 4.513-2.954 7.367-3.883 2.854-.93 5.974-1.394 9.36-1.394 3.385 0 6.488.465 9.309 1.394 2.821.93 5.26 2.224 7.318 3.883 2.058 1.66 3.668 3.634 4.83 5.924 1.16 2.29 1.742 4.83 1.742 7.617 0 2.788-.581 5.344-1.743 7.667a17.37 17.37 0 0 1-4.829 5.924c-2.058 1.626-4.497 2.904-7.318 3.834-2.821.929-5.924 1.393-9.31 1.393zm30.069 11.948c-4.05.73-8.082 1.31-12.098 1.742-4.016.431-8.015.813-11.997 1.145v32.758h-13.143v-32.061c-3.784.133-7.435.216-10.953.249s-6.87.05-10.056.05l-1.493-10.654c4.248 0 8.795-.017 13.64-.05 4.846-.033 9.808-.15 14.885-.348 5.078-.2 10.19-.482 15.334-.847s10.172-.88 15.084-1.543l.797 9.559zM535.77 80.1V171.7h-13.142v-20.013h-18.42v-9.956h18.42V80.1h13.143zm30.667 59.84c6.572-.067 12.712-.3 18.42-.698 5.709-.398 11.55-1.128 17.524-2.19l1.195 10.654a194.202 194.202 0 0 1-10.206 1.493 202.37 202.37 0 0 1-10.156.946 262.05 262.05 0 0 1-10.554.498c-3.617.1-7.418.15-11.4.15h-7.766v-37.836h29.073V98.32h-29.173V87.866h42.117v35.446h-29.074v16.627zm68.403-14.438h-13.143V172h-13.143V80h13.143v34.65h13.143v10.852zm65.017.996H687.61V81.892h12.247v16.627h7.169V80.2h12.446v46.996h-12.446v-18.32h-7.169v17.623zm-31.164-22.204h-11.849v9.658h11.849v-9.658zm12.147 19.715h-36.342v-39.33h12.346v9.957h11.849V84.68h12.147v39.329zm41.121 36.94v10.155h-64.619v-25.29h48.987v-5.178h-49.186V130.58h62.329v24.693h-48.987v5.675h51.476z"/>
        <filter id="a" width="102%" height="115.2%" x="-.5%" y="-3.8%" filterUnits="objectBoundingBox">
            <feMorphology in="SourceAlpha" operator="dilate" radius="1" result="shadowSpreadOuter1"/>
            <feOffset dx="4" dy="5" in="shadowSpreadOuter1" result="shadowOffsetOuter1"/>
            <feColorMatrix in="shadowOffsetOuter1" values="0 0 0 0 1 0 0 0 0 1 0 0 0 0 1 0 0 0 1 0"/>
        </filter>
    </defs>
    <g fill="none" fill-rule="evenodd" transform="translate(-69 -80)">
        <use fill="#000" filter="url(#a)" xlink:href="#b"/>
        <use fill="#393939" xlink:href="#b"/>
    </g>
</svg>
